<svg xmlns="http://www.w3.org/2000/svg" viewBox="0 0 178.72 266.16"><defs><style>.cls-1{fill:#fff;}</style></defs><g id="Calque_2" data-name="Calque 2"><g id="Calque_1-2" data-name="Calque 1"><g id="raRfYE"><path class="cls-1" d="M8.51,164.33c0-18.26,0-36.52,0-54.78,0-11.1,1-22.19-6.86-31.81C-1.83,73.48.43,70.08,6.07,70c7.61-.17,15.21-.16,22.82-.16,26.89,0,53.77-.13,80.65.08C121,70,121.16,70.3,121.89,82c.38,6.08-.84,11.7,8.85,12.27,25,1.47,36.41,10.88,43.57,34.78a103.48,103.48,0,0,1,.46,58.21c-6.89,24.8-18.33,34.15-44.06,36.39-6.55.57-8.64,3-8.9,9.24a102.31,102.31,0,0,1-2.94,19.42c-2.17,9-8.51,13.65-17.71,13.71-23.84.15-47.68.33-71.51-.07C19,265.74,13,260.07,11.21,249.27a174.61,174.61,0,0,1-2.59-25.59C8.25,203.9,8.51,184.12,8.51,164.33Zm21.94-7.74c0,18.76-.1,37.51,0,56.26.09,12,.25,12.13,11.51,12.26q23.57.25,47.14,0c10.31-.13,10.73-.35,10.77-10q.27-57.78,0-115.57c0-9.67-.49-9.92-10.8-10.08-15.2-.24-30.41-.17-45.62,0-12.71.1-12.89.21-13,12.43C30.33,120.09,30.45,138.34,30.45,156.59ZM122,158.93c0,11.66.34,23.32-.11,35-.4,10.45,4.17,11.19,12.32,9.5,9-1.87,15.29-8,18.58-16.49a74.93,74.93,0,0,0,0-56.25c-3.52-9-10.37-15-20.17-16.69-7.59-1.34-10.28.67-10.48,8.49C121.75,134.6,122,146.77,122,158.93Z"/></g><path class="cls-1" d="M113.3,64.07c4.91,0,8.52-5,7.2-10.08-5.78-22.21-27.72-38.73-54-38.73S18.35,31.78,12.57,54c-1.32,5.06,2.29,10.08,7.2,10.08Z"/><rect class="cls-1" x="55.01" width="21.36" height="9.15" rx="1.18"/><rect class="cls-1" x="61.11" width="9.15" height="207.47"/><rect class="cls-1" x="33.65" y="204.42" width="64.07" height="9.15" rx="0.81"/></g></g></svg>